<mxfile host="app.diagrams.net" modified="2023-10-21T14:53:37.786Z" agent="Mozilla/5.0 (Macintosh; Intel Mac OS X 10_15_7) AppleWebKit/537.36 (KHTML, like Gecko) Chrome/118.0.0.0 Safari/537.36" version="21.7.2" etag="2uOVSgy21EmJE_uTXAuu" type="github">
  <diagram name="第 1 页" id="oAgOZ_9eUeQv6tYSLymi">
    <mxGraphModel>
      <root>
        <mxCell id="0" />
        <mxCell id="1" parent="0" />
      </root>
    </mxGraphModel>
  </diagram>
</mxfile>
